<?xml version="1.0" standalone="no"?>
<!DOCTYPE svg PUBLIC "-//W3C//DTD SVG 20010904//EN"
 "http://www.w3.org/TR/2001/REC-SVG-20010904/DTD/svg10.dtd">
<svg version="1.0" xmlns="http://www.w3.org/2000/svg"
 width="150.000000pt" height="87.000000pt" viewBox="0 0 150.000000 87.000000"
 preserveAspectRatio="xMidYMid meet">

<g transform="translate(0.000000,87.000000) scale(0.100000,-0.100000)"
fill="#000000" stroke="none">
<path d="M432 674 c16 -18 17 -28 8 -77 -8 -39 -8 -63 0 -76 5 -11 10 -42 10
-69 0 -67 -20 -84 -113 -92 l-72 -7 72 -2 c62 -1 76 2 97 22 21 18 26 32 27
80 l2 58 23 -28 c13 -16 23 -42 24 -60 0 -17 4 -34 8 -37 4 -2 6 11 4 30 -3
27 2 41 27 69 26 31 31 44 31 90 0 29 -5 57 -11 61 -8 5 -10 -3 -7 -25 4 -28
-4 -42 -15 -23 -2 4 -2 1 0 -6 1 -8 3 -23 3 -35 0 -18 2 -19 11 -7 8 12 10 11
7 -5 -2 -11 -8 -20 -15 -20 -6 0 -15 -3 -19 -7 -11 -12 -40 -9 -52 5 -11 14 2
57 18 57 7 0 9 -9 5 -22 -6 -18 -5 -20 5 -11 21 19 4 46 -24 39 -24 -6 -24 -5
-13 32 6 20 18 43 27 50 13 11 11 12 -14 7 -20 -4 -35 -1 -50 12 -21 18 -21
18 -4 -3z"/>
<path d="M336 672 c-2 -4 11 -8 30 -8 20 0 29 3 21 8 -16 10 -44 10 -51 0z"/>
<path d="M534 645 c-4 -14 -4 -29 0 -32 3 -4 6 3 6 15 0 13 6 22 16 22 8 0 12
5 9 10 -11 18 -24 11 -31 -15z"/>
<path d="M637 653 c-4 -3 -6 -22 -6 -42 l1 -36 8 40 c8 42 8 49 -3 38z"/>
<path d="M733 637 c-6 -13 -19 -71 -28 -130 -18 -108 -18 -108 -57 -131 -49
-29 -39 -40 12 -13 38 22 39 23 50 107 17 116 28 160 45 167 8 3 12 9 9 14 -9
15 -20 10 -31 -14z"/>
<path d="M830 640 c-6 -12 -9 -29 -7 -38 3 -12 5 -11 6 5 0 12 8 26 17 31 11
6 13 12 6 16 -6 4 -16 -3 -22 -14z"/>
<path d="M922 650 c0 -8 8 -33 19 -55 10 -22 16 -29 13 -15 -10 38 -32 87 -32
70z"/>
<path d="M1037 653 c-4 -3 -7 -11 -7 -17 0 -6 5 -5 12 2 6 6 9 14 7 17 -3 3
-9 2 -12 -2z"/>
<path d="M1208 640 c8 -11 12 -54 12 -127 0 -120 -6 -134 -62 -148 -25 -6 -27
-5 -32 37 -3 23 -8 66 -9 93 -3 39 -4 35 -5 -20 -2 -77 -15 -103 -41 -82 -9 6
-8 2 3 -11 15 -17 22 -19 28 -10 12 16 1 -24 -18 -71 -21 -51 -10 -48 15 4 18
39 25 45 52 45 20 0 40 10 60 29 28 29 29 32 29 130 0 90 -2 102 -22 123 -13
13 -17 17 -10 8z"/>
<path d="M1117 633 c-4 -3 -7 -13 -7 -22 0 -13 2 -13 13 1 6 9 19 18 27 21 10
4 8 6 -6 6 -11 1 -24 -2 -27 -6z"/>
<path d="M642 545 c0 -16 2 -22 5 -12 2 9 2 23 0 30 -3 6 -5 -1 -5 -18z"/>
<path d="M890 553 c0 -4 5 -15 10 -23 8 -13 10 -13 10 2 0 9 -4 20 -10 23 -5
3 -10 3 -10 -2z"/>
<path d="M960 545 c0 -5 5 -17 10 -25 5 -8 10 -10 10 -5 0 6 -5 17 -10 25 -5
8 -10 11 -10 5z"/>
<path d="M651 485 c0 -11 4 -29 9 -40 l9 -20 0 20 c0 11 -4 29 -9 40 l-9 20 0
-20z"/>
<path d="M980 493 c0 -4 5 -15 10 -23 8 -13 10 -13 10 2 0 9 -4 20 -10 23 -5
3 -10 3 -10 -2z"/>
<path d="M822 454 c-2 -39 -4 -41 -28 -36 -21 4 -25 1 -22 -14 2 -11 13 -20
26 -22 13 -2 26 -10 29 -19 5 -12 7 -12 14 -1 6 9 9 5 9 -14 0 -49 -114 -168
-161 -168 -9 0 -10 3 -3 8 6 4 19 32 29 62 26 80 42 100 78 100 37 0 33 5 -9
13 -28 5 -33 3 -44 -23 -7 -17 -18 -30 -25 -30 -18 0 -63 -71 -67 -105 -2 -25
1 -31 21 -33 12 -2 33 -1 45 2 30 7 113 92 134 138 13 30 23 38 44 38 26 0 27
0 21 58 -8 75 -17 84 -11 10 4 -48 2 -58 -11 -58 -35 1 -60 34 -64 85 -3 47
-4 47 -5 9z m-121 -208 c-19 -42 -41 -62 -41 -35 0 22 48 92 58 84 1 -1 -6
-23 -17 -49z"/>
<path d="M330 406 c0 -8 4 -17 9 -20 5 -4 7 3 4 14 -6 23 -13 26 -13 6z"/>
<path d="M1020 413 c0 -4 5 -15 10 -23 8 -13 10 -13 10 2 0 9 -4 20 -10 23 -5
3 -10 3 -10 -2z"/>
<path d="M693 371 c-67 -31 -94 -91 -40 -91 19 0 20 1 3 13 -32 24 -7 49 85
86 13 5 17 10 9 10 -8 0 -34 -8 -57 -18z"/>
<path d="M540 359 c0 -7 -13 -10 -35 -7 -19 2 -35 0 -35 -4 0 -11 78 -10 85 1
3 5 1 12 -5 16 -5 3 -10 1 -10 -6z"/>
<path d="M1010 360 l-35 -7 38 -2 c20 0 37 4 37 9 0 6 -1 9 -2 9 -2 -1 -19 -5
-38 -9z"/>
<path d="M939 307 c-9 -7 -15 -28 -16 -49 -1 -46 20 -50 63 -13 22 19 26 27
16 37 -9 9 -15 9 -24 -1 -11 -12 -9 -13 7 -7 17 6 17 4 -4 -18 -14 -15 -28
-26 -33 -26 -17 0 -19 30 -5 60 9 16 15 30 14 30 -1 0 -9 -6 -18 -13z"/>
<path d="M1161 287 c-13 -21 -12 -21 5 -5 10 10 16 20 13 22 -3 3 -11 -5 -18
-17z"/>
<path d="M1083 254 c-18 -24 -29 -44 -24 -44 9 0 65 80 59 84 -2 2 -18 -17
-35 -40z"/>
<path d="M867 280 c8 -10 9 -21 3 -30 -14 -21 -12 -32 3 -25 6 4 3 -1 -7 -9
-15 -12 -16 -16 -5 -16 8 0 22 9 32 20 22 26 22 37 0 19 -15 -12 -16 -12 -11
8 4 14 0 27 -11 35 -14 11 -14 11 -4 -2z"/>
<path d="M1020 273 c0 -13 5 -23 11 -23 5 0 7 -4 4 -10 -3 -5 -1 -10 4 -10 14
0 13 10 -4 40 -14 25 -14 25 -15 3z"/>
<path d="M1183 260 c-13 -5 -23 -14 -23 -20 0 -8 -12 -10 -32 -6 l-33 6 28
-11 c23 -9 32 -8 46 5 10 9 23 16 29 16 6 0 14 5 17 10 7 12 -2 12 -32 0z"/>
</g>
</svg>
