<?xml version="1.0" encoding="UTF-8"?>
<svg xmlns="http://www.w3.org/2000/svg" xmlns:xlink="http://www.w3.org/1999/xlink" width="98px" height="70px" viewBox="0 0 98 70" version="1.1">
<g id="surface1">
<path style=" stroke:none;fill-rule:nonzero;fill:rgb(81.960785%,66.274512%,26.666668%);fill-opacity:1;" d="M 79.03125 20.476562 C 80.800781 22.363281 80.933594 23.933594 80.949219 26.433594 C 80.953125 26.722656 80.953125 27.015625 80.957031 27.316406 C 80.960938 27.933594 80.960938 28.546875 80.960938 29.167969 C 80.964844 30.109375 80.976562 31.046875 80.992188 31.988281 C 80.992188 32.585938 80.996094 33.1875 80.996094 33.785156 C 81 34.070312 81.003906 34.347656 81.007812 34.636719 C 81.003906 36.316406 80.800781 37.386719 79.769531 38.722656 C 77.796875 40.152344 76.269531 40.257812 73.875 40.210938 C 73.875 39.722656 73.875 39.230469 73.875 38.722656 C 73.144531 40.691406 72.414062 42.65625 71.664062 44.679688 C 72.148438 44.433594 72.636719 44.191406 73.132812 43.9375 C 73.382812 44.058594 73.625 44.179688 73.875 44.308594 C 73.875 44.554688 73.875 44.800781 73.875 45.054688 C 73.382812 45.546875 72.890625 46.042969 72.398438 46.542969 C 72.214844 47.09375 72.214844 47.09375 72.027344 47.660156 C 72.371094 47.484375 72.714844 47.304688 73.066406 47.125 C 74.238281 46.542969 74.238281 46.542969 75.347656 46.167969 C 75.347656 45.558594 75.347656 44.941406 75.347656 44.308594 C 75.953125 44.0625 76.5625 43.820312 77.1875 43.5625 C 76.945312 44.558594 76.699219 45.546875 76.453125 46.542969 C 76.65625 46.421875 76.863281 46.296875 77.074219 46.167969 C 78.039062 45.75 78.726562 45.742188 79.769531 45.796875 C 79.585938 46.351562 79.585938 46.351562 79.398438 46.914062 C 79.0625 47.023438 78.730469 47.128906 78.386719 47.242188 C 77.121094 47.582031 77.121094 47.582031 76.222656 48.660156 C 75.933594 48.945312 75.644531 49.226562 75.347656 49.523438 C 74.496094 49.449219 74.496094 49.449219 73.875 49.148438 C 73.875 48.902344 73.875 48.660156 73.875 48.402344 C 71.980469 48.222656 71.980469 48.222656 70.394531 49.148438 C 70.109375 49.519531 70.109375 49.519531 69.820312 49.894531 C 69.273438 49.710938 69.273438 49.710938 68.714844 49.523438 C 68.589844 49.15625 68.472656 48.78125 68.34375 48.402344 C 67.738281 48.28125 67.128906 48.160156 66.503906 48.03125 C 66.503906 47.414062 66.503906 46.804688 66.503906 46.167969 C 66.308594 46.351562 66.113281 46.539062 65.910156 46.726562 C 65.648438 46.96875 65.386719 47.207031 65.121094 47.449219 C 64.867188 47.6875 64.609375 47.925781 64.34375 48.171875 C 63.058594 49.160156 61.832031 49.273438 60.238281 49.148438 C 59.871094 48.902344 59.511719 48.660156 59.132812 48.402344 C 58.992188 48.570312 58.847656 48.734375 58.703125 48.90625 C 58.511719 49.117188 58.320312 49.324219 58.121094 49.542969 C 57.933594 49.757812 57.746094 49.964844 57.550781 50.183594 C 56.925781 50.636719 56.925781 50.636719 56.132812 50.589844 C 55.792969 50.429688 55.792969 50.429688 55.449219 50.265625 C 54.933594 48.710938 55.511719 47.980469 56.183594 46.542969 C 54.90625 46.261719 54.90625 46.261719 53.605469 46.167969 C 53.226562 46.589844 52.871094 47.027344 52.523438 47.472656 C 50.574219 49.796875 48.035156 51.933594 45.128906 52.871094 C 43.699219 52.757812 43.019531 52.570312 41.816406 51.757812 C 41.265625 50.089844 41.402344 48.964844 42.09375 47.402344 C 43.660156 44.480469 46.128906 42.160156 48.445312 39.839844 C 48.996094 40.023438 48.996094 40.023438 49.554688 40.210938 C 49.414062 40.546875 49.414062 40.546875 49.265625 40.882812 C 48.828125 41.898438 48.394531 42.917969 47.960938 43.9375 C 47.8125 44.285156 47.664062 44.628906 47.511719 44.988281 C 46.664062 46.980469 45.863281 48.976562 45.128906 51.007812 C 44.769531 50.890625 44.402344 50.765625 44.023438 50.636719 C 44.265625 49.230469 44.65625 47.949219 45.15625 46.613281 C 45.285156 46.25 45.421875 45.886719 45.558594 45.511719 C 45.660156 45.238281 45.761719 44.964844 45.871094 44.679688 C 43.636719 47.542969 43.636719 47.542969 42.921875 51.007812 C 44.820312 51.539062 45.746094 51.125 47.429688 50.207031 C 50.464844 48.164062 53.3125 45.136719 54.710938 41.703125 C 54.867188 40.746094 54.835938 40.066406 54.710938 39.097656 C 53.007812 37.949219 51.164062 38.203125 49.246094 38.523438 C 46.578125 39.109375 43.792969 40.074219 41.816406 42.074219 C 41.691406 42.988281 41.691406 42.988281 41.816406 43.9375 C 42.175781 44.179688 42.542969 44.429688 42.921875 44.679688 C 42.921875 44.925781 42.921875 45.171875 42.921875 45.425781 C 41.84375 45.027344 41.160156 44.761719 40.339844 43.9375 C 40.109375 42.933594 40.109375 42.933594 40.339844 41.703125 C 42.417969 38.90625 45.910156 37.664062 49.195312 37.011719 C 51.171875 36.773438 52.859375 36.765625 54.710938 37.605469 C 55.632812 38.375 55.632812 38.375 56.183594 39.46875 C 56.222656 41.035156 55.9375 42.453125 55.449219 43.9375 C 55.8125 43.9375 56.179688 43.9375 56.554688 43.9375 C 56.554688 44.429688 56.554688 44.921875 56.554688 45.425781 C 57.039062 45.546875 57.527344 45.671875 58.027344 45.796875 C 57.785156 46.660156 57.539062 47.519531 57.289062 48.402344 C 57.714844 47.859375 58.136719 47.316406 58.558594 46.773438 C 58.792969 46.472656 59.03125 46.171875 59.273438 45.859375 C 59.878906 45.089844 59.878906 45.089844 60.238281 44.308594 C 60.601562 44.429688 60.96875 44.554688 61.34375 44.679688 C 61.222656 45.664062 61.101562 46.648438 60.976562 47.660156 C 61.339844 47.535156 61.707031 47.414062 62.078125 47.289062 C 62.078125 47.039062 62.078125 46.796875 62.078125 46.542969 C 62.324219 46.542969 62.570312 46.542969 62.820312 46.542969 C 63.0625 45.929688 63.304688 45.3125 63.554688 44.679688 C 63.921875 44.679688 64.28125 44.679688 64.660156 44.679688 C 64.78125 44.925781 64.902344 45.171875 65.027344 45.425781 C 65.273438 45.179688 65.515625 44.933594 65.765625 44.679688 C 66.503906 44.703125 66.503906 44.703125 67.238281 45.054688 C 67.703125 46.007812 67.703125 46.007812 67.980469 46.914062 C 69.769531 45.378906 70.441406 43.796875 71.222656 41.582031 C 71.394531 41.117188 71.394531 41.117188 71.574219 40.644531 C 71.855469 39.878906 72.125 39.113281 72.398438 38.351562 C 71.671875 38.722656 71.671875 38.722656 70.925781 39.097656 C 69.496094 37.277344 69.386719 35.789062 69.363281 33.527344 C 69.363281 33.234375 69.355469 32.945312 69.351562 32.644531 C 69.347656 32.03125 69.34375 31.414062 69.339844 30.800781 C 69.335938 30.171875 69.332031 29.546875 69.320312 28.921875 C 69.300781 28.011719 69.296875 27.105469 69.292969 26.195312 C 69.289062 25.917969 69.28125 25.640625 69.277344 25.351562 C 69.28125 23.417969 69.726562 22.34375 70.925781 20.847656 C 73.308594 18.671875 76.324219 18.984375 79.03125 20.476562 Z M 73.875 21.597656 C 72.929688 23.023438 73.015625 24.207031 73.011719 25.867188 C 73.011719 26.171875 73.007812 26.480469 73.003906 26.800781 C 73.003906 27.453125 73 28.109375 73 28.761719 C 73 29.757812 72.984375 30.757812 72.96875 31.757812 C 72.96875 32.390625 72.96875 33.027344 72.964844 33.660156 C 72.960938 33.957031 72.957031 34.257812 72.953125 34.5625 C 72.960938 35.914062 73.019531 36.703125 73.824219 37.808594 C 74.585938 38.445312 74.585938 38.445312 75.574219 38.351562 C 76.46875 38.0625 76.46875 38.0625 76.867188 37.402344 C 77.328125 36.097656 77.300781 34.828125 77.296875 33.464844 C 77.300781 33.171875 77.300781 32.878906 77.300781 32.578125 C 77.308594 31.960938 77.308594 31.347656 77.308594 30.730469 C 77.300781 29.792969 77.3125 28.847656 77.324219 27.90625 C 77.324219 27.308594 77.324219 26.710938 77.324219 26.109375 C 77.328125 25.832031 77.328125 25.550781 77.332031 25.257812 C 77.324219 24.070312 77.261719 23.214844 76.699219 22.160156 C 76.082031 21.484375 76.082031 21.484375 74.953125 21.433594 C 74.597656 21.484375 74.238281 21.542969 73.875 21.597656 Z M 73.875 21.597656 "/>
<path style=" stroke:none;fill-rule:nonzero;fill:rgb(96.862745%,97.254902%,97.254902%);fill-opacity:1;" d="M 56.183594 20.105469 C 57.644531 20.105469 59.101562 20.105469 60.609375 20.105469 C 62.066406 23.917969 63.527344 27.722656 65.027344 31.648438 C 65.035156 30.023438 65.042969 28.394531 65.050781 26.714844 C 65.058594 26.203125 65.058594 25.695312 65.0625 25.164062 C 65.0625 24.761719 65.066406 24.355469 65.066406 23.9375 C 65.066406 23.527344 65.070312 23.113281 65.070312 22.6875 C 65.0625 21.515625 65.0625 21.515625 64.660156 20.105469 C 65.996094 20.105469 67.335938 20.105469 68.714844 20.105469 C 68.472656 20.722656 68.226562 21.335938 67.980469 21.96875 C 67.867188 22.785156 67.867188 22.785156 67.882812 23.613281 C 67.882812 23.925781 67.875 24.242188 67.871094 24.5625 C 67.875 24.894531 67.875 25.230469 67.875 25.574219 C 67.875 25.921875 67.875 26.265625 67.875 26.625 C 67.875 27.359375 67.875 28.089844 67.882812 28.828125 C 67.886719 29.945312 67.882812 31.066406 67.875 32.179688 C 67.875 32.898438 67.875 33.613281 67.875 34.324219 C 67.875 34.65625 67.875 34.992188 67.871094 35.332031 C 67.890625 37.105469 68.035156 38.546875 68.714844 40.210938 C 67.257812 40.210938 65.796875 40.210938 64.292969 40.210938 C 63.671875 38.695312 63.046875 37.179688 62.425781 35.664062 C 62.210938 35.144531 62 34.628906 61.785156 34.109375 C 61.484375 33.371094 61.175781 32.628906 60.871094 31.886719 C 60.6875 31.441406 60.503906 30.992188 60.320312 30.53125 C 60.023438 29.796875 59.75 29.050781 59.5 28.296875 C 59.488281 29.933594 59.484375 31.570312 59.480469 33.210938 C 59.476562 33.671875 59.472656 34.136719 59.46875 34.617188 C 59.46875 35.058594 59.46875 35.507812 59.46875 35.96875 C 59.464844 36.378906 59.464844 36.792969 59.460938 37.21875 C 59.496094 38.261719 59.632812 39.199219 59.871094 40.210938 C 58.773438 40.210938 57.679688 40.210938 56.554688 40.210938 C 56.554688 39.980469 56.554688 39.75 56.558594 39.515625 C 56.5625 37.125 56.570312 34.730469 56.574219 32.34375 C 56.574219 31.449219 56.578125 30.554688 56.578125 29.664062 C 56.589844 28.378906 56.589844 27.097656 56.589844 25.8125 C 56.59375 25.414062 56.59375 25.015625 56.597656 24.601562 C 56.597656 24.230469 56.597656 23.859375 56.597656 23.472656 C 56.597656 23.148438 56.597656 22.820312 56.597656 22.480469 C 56.574219 21.480469 56.574219 21.480469 56.183594 20.105469 Z M 56.183594 20.105469 "/>
<path style=" stroke:none;fill-rule:nonzero;fill:rgb(97.254902%,97.647059%,97.647059%);fill-opacity:1;" d="M 79.03125 20.476562 C 80.800781 22.363281 80.933594 23.933594 80.949219 26.433594 C 80.953125 26.722656 80.953125 27.015625 80.957031 27.316406 C 80.960938 27.933594 80.960938 28.546875 80.960938 29.167969 C 80.964844 30.109375 80.976562 31.046875 80.992188 31.988281 C 80.992188 32.585938 80.996094 33.1875 80.996094 33.785156 C 81 34.070312 81.003906 34.347656 81.007812 34.636719 C 81.003906 36.316406 80.800781 37.386719 79.769531 38.722656 C 77.796875 40.152344 76.269531 40.257812 73.875 40.210938 C 73.992188 39.597656 74.117188 38.980469 74.238281 38.351562 C 74.597656 38.25 74.953125 38.152344 75.324219 38.050781 C 75.882812 37.828125 75.882812 37.828125 76.453125 37.605469 C 76.90625 36.222656 76.882812 34.929688 76.882812 33.488281 C 76.882812 33.191406 76.886719 32.902344 76.886719 32.597656 C 76.890625 31.980469 76.890625 31.359375 76.890625 30.742188 C 76.890625 29.792969 76.894531 28.84375 76.902344 27.894531 C 76.902344 27.292969 76.90625 26.691406 76.90625 26.085938 C 76.90625 25.800781 76.910156 25.519531 76.914062 25.222656 C 76.90625 23.816406 76.878906 23.171875 76.082031 21.96875 C 74.945312 21.875 74.945312 21.875 73.875 21.96875 C 73.25 23.230469 73.460938 24.65625 73.46875 26.046875 C 73.46875 26.535156 73.46875 26.535156 73.46875 27.039062 C 73.46875 28.09375 73.472656 29.152344 73.484375 30.207031 C 73.484375 30.917969 73.484375 31.632812 73.488281 32.347656 C 73.492188 34.101562 73.496094 35.855469 73.503906 37.605469 C 72.957031 37.789062 72.957031 37.789062 72.398438 37.976562 C 72.15625 38.34375 71.914062 38.71875 71.664062 39.097656 C 70.695312 38.738281 70.273438 38.507812 69.777344 37.582031 C 69.363281 36.195312 69.332031 34.882812 69.328125 33.453125 C 69.324219 33.164062 69.324219 32.875 69.320312 32.578125 C 69.316406 31.964844 69.316406 31.355469 69.316406 30.746094 C 69.316406 29.8125 69.296875 28.886719 69.285156 27.953125 C 69.285156 27.359375 69.28125 26.765625 69.28125 26.167969 C 69.277344 25.894531 69.273438 25.617188 69.261719 25.335938 C 69.28125 23.410156 69.734375 22.335938 70.925781 20.847656 C 73.308594 18.671875 76.324219 18.984375 79.03125 20.476562 Z M 79.03125 20.476562 "/>
<path style=" stroke:none;fill-rule:nonzero;fill:rgb(97.254902%,97.254902%,97.254902%);fill-opacity:1;" d="M 20.070312 16.757812 C 20.195312 17 20.320312 17.246094 20.441406 17.5 C 21.042969 17.472656 21.042969 17.472656 21.65625 17.449219 C 22.1875 17.429688 22.71875 17.417969 23.253906 17.40625 C 23.511719 17.394531 23.777344 17.378906 24.050781 17.367188 C 25.96875 17.332031 27.027344 17.703125 28.550781 18.992188 C 29.386719 20.261719 29.34375 20.496094 29.171875 21.941406 C 29.132812 22.304688 29.09375 22.664062 29.050781 23.035156 C 28.988281 23.613281 28.988281 23.613281 28.917969 24.203125 C 28.828125 25.003906 28.746094 25.800781 28.664062 26.601562 C 28.625 26.960938 28.585938 27.316406 28.546875 27.691406 C 28.476562 28.65625 28.476562 28.65625 28.910156 29.375 C 29.5625 30.734375 29.4375 32.160156 29.445312 33.648438 C 29.460938 33.960938 29.472656 34.273438 29.484375 34.59375 C 29.496094 36.140625 29.4375 37.269531 28.492188 38.527344 C 26.25 40.542969 23.894531 40.304688 21.042969 40.257812 C 20.664062 40.253906 20.289062 40.25 19.902344 40.25 C 18.976562 40.242188 18.050781 40.230469 17.125 40.210938 C 17.238281 39.992188 17.355469 39.769531 17.472656 39.539062 C 18.074219 38.285156 18.28125 37.28125 18.308594 35.90625 C 18.320312 35.394531 18.320312 35.394531 18.328125 34.867188 C 18.335938 34.5 18.339844 34.132812 18.347656 33.753906 C 18.359375 33.371094 18.363281 32.992188 18.371094 32.601562 C 18.394531 31.394531 18.417969 30.183594 18.4375 28.972656 C 18.457031 28.152344 18.472656 27.332031 18.484375 26.511719 C 18.527344 24.503906 18.5625 22.488281 18.601562 20.476562 C 18.359375 20.476562 18.117188 20.476562 17.863281 20.476562 C 17.589844 19.851562 17.589844 19.851562 17.496094 18.992188 C 18.28125 17.769531 18.695312 17.222656 20.070312 16.757812 Z M 21.546875 18.992188 C 21.546875 25.378906 21.546875 31.769531 21.546875 38.351562 C 22.949219 38.824219 23.800781 38.6875 25.230469 38.351562 C 26.003906 37.683594 26.304688 37.136719 26.433594 36.121094 C 26.476562 35.167969 26.480469 34.21875 26.472656 33.265625 C 26.472656 32.914062 26.472656 32.566406 26.472656 32.207031 C 26.472656 31.464844 26.46875 30.726562 26.460938 29.992188 C 26.453125 28.859375 26.457031 27.734375 26.457031 26.601562 C 26.457031 25.882812 26.453125 25.164062 26.449219 24.445312 C 26.449219 24.109375 26.449219 23.773438 26.449219 23.421875 C 26.449219 23.105469 26.445312 22.789062 26.441406 22.464844 C 26.441406 22.191406 26.433594 21.914062 26.433594 21.628906 C 26.324219 20.730469 26.074219 20.132812 25.601562 19.363281 C 24.507812 18.738281 24.507812 18.738281 21.546875 18.992188 Z M 21.546875 18.992188 "/>
<path style=" stroke:none;fill-rule:nonzero;fill:rgb(96.470588%,96.470588%,96.078432%);fill-opacity:1;" d="M 36.65625 20.105469 C 38.359375 20.105469 40.058594 20.105469 41.816406 20.105469 C 41.691406 20.84375 41.574219 21.582031 41.445312 22.339844 C 41.535156 23.257812 41.660156 24.171875 41.8125 25.082031 C 41.855469 25.335938 41.898438 25.585938 41.9375 25.847656 C 42.070312 26.652344 42.207031 27.449219 42.34375 28.25 C 42.4375 28.796875 42.527344 29.34375 42.617188 29.890625 C 42.835938 31.222656 43.0625 32.550781 43.289062 33.886719 C 43.527344 32.6875 43.765625 31.492188 44.003906 30.300781 C 44.070312 29.960938 44.136719 29.625 44.207031 29.277344 C 45.273438 24.691406 45.273438 24.691406 44.761719 20.105469 C 46.097656 20.105469 47.4375 20.105469 48.816406 20.105469 C 48.574219 20.722656 48.328125 21.335938 48.078125 21.96875 C 47.949219 22.5 47.835938 23.03125 47.738281 23.570312 C 47.679688 23.878906 47.621094 24.183594 47.566406 24.5 C 47.507812 24.824219 47.449219 25.148438 47.386719 25.480469 C 47.324219 25.824219 47.261719 26.160156 47.191406 26.511719 C 46.84375 28.351562 46.546875 30.183594 46.3125 32.042969 C 45.589844 37.429688 45.589844 37.429688 44.28125 38.992188 C 42.710938 39.992188 41.457031 40.296875 39.605469 40.210938 C 39.710938 39.492188 39.710938 39.492188 39.820312 38.75 C 40.019531 36.894531 39.816406 35.265625 39.46875 33.4375 C 39.414062 33.125 39.355469 32.8125 39.300781 32.492188 C 39.183594 31.835938 39.058594 31.179688 38.9375 30.527344 C 38.753906 29.53125 38.570312 28.53125 38.390625 27.535156 C 38.277344 26.894531 38.15625 26.257812 38.042969 25.617188 C 37.988281 25.324219 37.933594 25.027344 37.878906 24.71875 C 37.824219 24.441406 37.773438 24.160156 37.71875 23.875 C 37.671875 23.632812 37.628906 23.386719 37.582031 23.140625 C 37.335938 22.109375 36.988281 21.109375 36.65625 20.105469 Z M 36.65625 20.105469 "/>
<path style=" stroke:none;fill-rule:nonzero;fill:rgb(97.647059%,98.039216%,97.647059%);fill-opacity:1;" d="M 49.921875 20.105469 C 51.625 20.105469 53.324219 20.105469 55.078125 20.105469 C 54.960938 20.597656 54.835938 21.089844 54.710938 21.597656 C 54.667969 22.117188 54.648438 22.644531 54.636719 23.164062 C 54.628906 23.472656 54.625 23.777344 54.613281 24.09375 C 54.605469 24.578125 54.605469 24.578125 54.59375 25.078125 C 54.589844 25.417969 54.582031 25.753906 54.570312 26.101562 C 54.546875 27.171875 54.523438 28.25 54.503906 29.320312 C 54.488281 30.050781 54.472656 30.777344 54.457031 31.507812 C 54.414062 33.289062 54.378906 35.078125 54.34375 36.863281 C 53.125 36.738281 51.910156 36.613281 50.660156 36.492188 C 50.644531 35.824219 50.644531 35.824219 50.628906 35.144531 C 50.59375 33.5 50.558594 31.855469 50.523438 30.207031 C 50.503906 29.496094 50.488281 28.785156 50.476562 28.070312 C 50.453125 27.050781 50.429688 26.023438 50.40625 25 C 50.398438 24.683594 50.394531 24.363281 50.386719 24.035156 C 50.382812 23.738281 50.375 23.4375 50.367188 23.132812 C 50.359375 22.871094 50.351562 22.609375 50.347656 22.339844 C 50.300781 21.460938 50.300781 21.460938 49.921875 20.105469 Z M 49.921875 20.105469 "/>
<path style=" stroke:none;fill-rule:nonzero;fill:rgb(78.039217%,65.098041%,34.509805%);fill-opacity:1;" d="M 35.179688 19.363281 C 35.425781 19.488281 35.667969 19.605469 35.921875 19.734375 C 35.554688 20.285156 35.554688 20.285156 35.179688 20.847656 C 35.144531 21.605469 35.144531 21.605469 35.273438 22.410156 C 35.308594 22.679688 35.335938 22.941406 35.371094 23.214844 C 35.613281 24.554688 35.964844 25.867188 36.285156 27.179688 C 36.167969 25.09375 36.042969 23.003906 35.921875 20.847656 C 36.164062 20.972656 36.40625 21.097656 36.65625 21.222656 C 37.410156 23.554688 37.734375 26.238281 37.390625 28.667969 C 36.707031 30.003906 36.003906 30.824219 34.902344 31.835938 C 33.621094 33.34375 33.851562 35.257812 33.832031 37.144531 C 34.136719 38.660156 34.6875 38.980469 35.921875 39.839844 C 35.921875 40.085938 35.921875 40.332031 35.921875 40.585938 C 33.957031 41.445312 32.441406 41.296875 30.390625 40.957031 C 30.273438 40.464844 30.148438 39.972656 30.019531 39.46875 C 30.320312 39.296875 30.617188 39.132812 30.921875 38.957031 C 31.898438 38.445312 31.898438 38.445312 32.234375 37.605469 C 32.261719 36.96875 32.285156 36.332031 32.304688 35.695312 C 32.476562 33.4375 33.304688 32.160156 34.816406 30.53125 C 34.425781 30.625 34.035156 30.714844 33.640625 30.8125 C 32.234375 30.902344 32.234375 30.902344 31.171875 30.226562 C 30.15625 29.171875 30.039062 28.882812 29.933594 27.390625 C 30.019531 26.0625 30.019531 26.0625 30.460938 25.320312 C 31.125 24.945312 31.125 24.945312 32.070312 25.015625 C 32.972656 25.320312 32.972656 25.320312 33.707031 26.0625 C 33.570312 27.039062 33.570312 27.039062 33.339844 27.925781 C 32.855469 27.925781 32.363281 27.925781 31.867188 27.925781 C 31.867188 27.679688 31.867188 27.433594 31.867188 27.179688 C 32.230469 27.179688 32.59375 27.179688 32.972656 27.179688 C 32.847656 26.691406 32.726562 26.199219 32.601562 25.691406 C 31.871094 26.0625 31.871094 26.0625 31.125 26.4375 C 31.25 27.296875 31.375 28.15625 31.496094 29.042969 C 32.75 29.296875 32.75 29.296875 34.074219 29.414062 C 34.914062 28.746094 34.914062 28.746094 34.820312 27.820312 C 34.757812 27.332031 34.757812 27.332031 34.699219 26.832031 C 34.644531 26.34375 34.644531 26.34375 34.589844 25.84375 C 34.460938 24.894531 34.460938 24.894531 34.074219 23.832031 C 33.910156 21.136719 33.910156 21.136719 34.628906 19.917969 C 34.808594 19.734375 34.992188 19.550781 35.179688 19.363281 Z M 35.921875 27.925781 C 36.285156 28.667969 36.285156 28.667969 36.285156 28.667969 Z M 35.921875 27.925781 "/>
<path style=" stroke:none;fill-rule:nonzero;fill:rgb(83.137256%,67.058825%,25.098041%);fill-opacity:1;" d="M 73.503906 37.234375 C 73.628906 37.476562 73.746094 37.726562 73.875 37.976562 C 74.117188 38.101562 74.359375 38.226562 74.609375 38.351562 C 74.246094 38.535156 74.246094 38.535156 73.875 38.722656 C 73.457031 39.722656 73.078125 40.707031 72.722656 41.726562 C 72.621094 42.007812 72.515625 42.289062 72.410156 42.578125 C 72.160156 43.28125 71.910156 43.980469 71.664062 44.679688 C 71.886719 44.550781 72.117188 44.421875 72.351562 44.285156 C 72.609375 44.167969 72.871094 44.054688 73.132812 43.9375 C 73.382812 44.058594 73.625 44.179688 73.875 44.308594 C 73.875 44.554688 73.875 44.800781 73.875 45.054688 C 73.382812 45.546875 72.890625 46.042969 72.398438 46.542969 C 72.273438 46.910156 72.15625 47.277344 72.027344 47.660156 C 72.371094 47.484375 72.714844 47.304688 73.066406 47.125 C 74.238281 46.542969 74.238281 46.542969 75.347656 46.167969 C 75.347656 45.558594 75.347656 44.941406 75.347656 44.308594 C 75.953125 44.0625 76.5625 43.820312 77.1875 43.5625 C 76.945312 44.558594 76.699219 45.546875 76.453125 46.542969 C 76.65625 46.421875 76.863281 46.296875 77.074219 46.167969 C 78.039062 45.75 78.726562 45.742188 79.769531 45.796875 C 79.585938 46.351562 79.585938 46.351562 79.398438 46.914062 C 79.0625 47.023438 78.730469 47.128906 78.386719 47.242188 C 77.121094 47.582031 77.121094 47.582031 76.222656 48.660156 C 75.933594 48.945312 75.644531 49.226562 75.347656 49.523438 C 74.496094 49.449219 74.496094 49.449219 73.875 49.148438 C 73.875 48.902344 73.875 48.660156 73.875 48.402344 C 71.980469 48.222656 71.980469 48.222656 70.394531 49.148438 C 70.203125 49.394531 70.015625 49.640625 69.820312 49.894531 C 69.453125 49.769531 69.089844 49.644531 68.714844 49.523438 C 68.53125 48.964844 68.53125 48.964844 68.34375 48.402344 C 67.859375 48.402344 67.371094 48.402344 66.875 48.402344 C 66.875 47.542969 66.875 46.683594 66.875 45.796875 C 67.117188 46.289062 67.359375 46.777344 67.609375 47.289062 C 69.683594 46 70.1875 44.257812 70.96875 42.050781 C 71.214844 41.378906 71.460938 40.707031 71.710938 40.039062 C 71.816406 39.738281 71.921875 39.445312 72.03125 39.136719 C 72.414062 38.316406 72.832031 37.832031 73.503906 37.234375 Z M 73.503906 37.234375 "/>
<path style=" stroke:none;fill-rule:nonzero;fill:rgb(86.274511%,67.843139%,24.313726%);fill-opacity:1;" d="M 55.078125 43.191406 C 55.203125 43.4375 55.324219 43.679688 55.449219 43.9375 C 55.8125 43.9375 56.179688 43.9375 56.554688 43.9375 C 56.554688 44.429688 56.554688 44.921875 56.554688 45.425781 C 57.039062 45.546875 57.527344 45.671875 58.027344 45.796875 C 57.785156 46.660156 57.539062 47.519531 57.289062 48.402344 C 57.714844 47.859375 58.136719 47.316406 58.558594 46.773438 C 58.792969 46.472656 59.03125 46.171875 59.273438 45.859375 C 59.878906 45.089844 59.878906 45.089844 60.238281 44.308594 C 60.601562 44.429688 60.96875 44.554688 61.34375 44.679688 C 61.222656 45.664062 61.101562 46.648438 60.976562 47.660156 C 61.339844 47.535156 61.707031 47.414062 62.078125 47.289062 C 62.078125 47.039062 62.078125 46.796875 62.078125 46.542969 C 62.324219 46.542969 62.570312 46.542969 62.820312 46.542969 C 63.0625 45.929688 63.304688 45.3125 63.554688 44.679688 C 63.921875 44.679688 64.28125 44.679688 64.660156 44.679688 C 64.78125 44.925781 64.902344 45.171875 65.027344 45.425781 C 65.273438 45.179688 65.515625 44.933594 65.765625 44.679688 C 67.070312 44.882812 67.070312 44.882812 67.609375 45.425781 C 67.621094 46.167969 67.625 46.914062 67.609375 47.660156 C 67.242188 47.78125 66.878906 47.90625 66.503906 48.03125 C 66.503906 47.414062 66.503906 46.804688 66.503906 46.167969 C 66.308594 46.351562 66.113281 46.539062 65.910156 46.726562 C 65.648438 46.96875 65.386719 47.207031 65.121094 47.449219 C 64.867188 47.6875 64.609375 47.925781 64.34375 48.171875 C 63.058594 49.160156 61.832031 49.273438 60.238281 49.148438 C 59.871094 48.902344 59.511719 48.660156 59.132812 48.402344 C 58.917969 48.652344 58.917969 48.652344 58.703125 48.90625 C 58.511719 49.117188 58.320312 49.324219 58.121094 49.542969 C 57.933594 49.757812 57.746094 49.964844 57.550781 50.183594 C 56.925781 50.636719 56.925781 50.636719 56.132812 50.589844 C 55.792969 50.429688 55.792969 50.429688 55.449219 50.265625 C 54.933594 48.710938 55.511719 47.980469 56.183594 46.542969 C 55.574219 46.421875 54.96875 46.296875 54.34375 46.167969 C 54.089844 45.519531 54.089844 45.519531 53.976562 44.679688 C 54.503906 43.84375 54.503906 43.84375 55.078125 43.191406 Z M 55.078125 43.191406 "/>
<path style=" stroke:none;fill-rule:nonzero;fill:rgb(92.54902%,92.941177%,91.764706%);fill-opacity:1;" d="M 56.925781 22.339844 C 57.707031 23.929688 57.753906 25.027344 57.730469 26.746094 C 57.730469 27.023438 57.726562 27.300781 57.726562 27.589844 C 57.722656 28.476562 57.714844 29.363281 57.707031 30.253906 C 57.703125 30.855469 57.699219 31.457031 57.695312 32.0625 C 57.6875 33.539062 57.671875 35.011719 57.660156 36.492188 C 58.027344 36.304688 58.027344 36.304688 58.394531 36.113281 C 58.390625 35.898438 58.386719 35.675781 58.382812 35.445312 C 58.371094 34.445312 58.359375 33.441406 58.347656 32.441406 C 58.34375 32.089844 58.335938 31.746094 58.332031 31.382812 C 58.328125 31.046875 58.328125 30.714844 58.324219 30.371094 C 58.320312 30.066406 58.316406 29.757812 58.3125 29.4375 C 58.394531 28.667969 58.394531 28.667969 59.132812 27.925781 C 59.144531 28.234375 59.152344 28.535156 59.160156 28.851562 C 59.203125 30.246094 59.25 31.632812 59.292969 33.023438 C 59.308594 33.503906 59.324219 33.984375 59.339844 34.484375 C 59.351562 34.945312 59.371094 35.410156 59.386719 35.890625 C 59.398438 36.316406 59.414062 36.742188 59.425781 37.183594 C 59.492188 38.230469 59.636719 39.191406 59.871094 40.210938 C 58.773438 40.210938 57.679688 40.210938 56.554688 40.210938 C 56.675781 34.316406 56.796875 28.417969 56.925781 22.339844 Z M 56.925781 22.339844 "/>
<path style=" stroke:none;fill-rule:nonzero;fill:rgb(83.529413%,67.843139%,31.37255%);fill-opacity:1;" d="M 53.605469 37.605469 C 53.484375 37.855469 53.363281 38.097656 53.238281 38.351562 C 52.839844 38.328125 52.445312 38.308594 52.042969 38.28125 C 48.457031 38.296875 44.414062 39.449219 41.816406 42.074219 C 41.691406 42.988281 41.691406 42.988281 41.816406 43.9375 C 42.175781 44.179688 42.542969 44.429688 42.921875 44.679688 C 42.921875 44.925781 42.921875 45.171875 42.921875 45.425781 C 41.84375 45.027344 41.160156 44.761719 40.339844 43.9375 C 40.109375 42.933594 40.109375 42.933594 40.339844 41.703125 C 42.417969 38.90625 45.96875 37.679688 49.246094 36.992188 C 50.761719 36.804688 52.226562 36.910156 53.605469 37.605469 Z M 53.605469 37.605469 "/>
<path style=" stroke:none;fill-rule:nonzero;fill:rgb(73.725492%,62.352943%,34.509805%);fill-opacity:1;" d="M 31.707031 19.335938 C 32.121094 19.34375 32.539062 19.355469 32.972656 19.363281 C 32.726562 19.605469 32.484375 19.855469 32.234375 20.105469 C 31.746094 20.105469 31.261719 20.105469 30.761719 20.105469 C 30.738281 20.355469 30.714844 20.601562 30.691406 20.855469 C 30.429688 23.648438 30.429688 23.648438 30.183594 24.804688 C 29.75 27.195312 29.765625 28.472656 31.125 30.484375 C 31.4375 30.898438 31.4375 30.898438 31.753906 31.320312 C 32.234375 32.023438 32.234375 32.023438 32.234375 32.765625 C 31.992188 32.765625 31.746094 32.765625 31.496094 32.765625 C 30.871094 32.113281 30.871094 32.113281 30.183594 31.230469 C 29.957031 30.945312 29.726562 30.660156 29.492188 30.363281 C 28.085938 28.035156 28.703125 25.855469 29.238281 23.339844 C 29.3125 23 29.378906 22.65625 29.445312 22.304688 C 30.054688 19.367188 30.054688 19.367188 31.707031 19.335938 Z M 31.707031 19.335938 "/>
<path style=" stroke:none;fill-rule:nonzero;fill:rgb(74.117649%,59.215689%,23.529412%);fill-opacity:1;" d="M 32.070312 25.015625 C 32.972656 25.320312 32.972656 25.320312 33.707031 26.0625 C 33.570312 27.039062 33.570312 27.039062 33.339844 27.925781 C 32.855469 27.925781 32.363281 27.925781 31.867188 27.925781 C 31.867188 27.679688 31.867188 27.433594 31.867188 27.179688 C 32.230469 27.179688 32.59375 27.179688 32.972656 27.179688 C 32.847656 26.691406 32.726562 26.199219 32.601562 25.691406 C 31.871094 26.0625 31.871094 26.0625 31.125 26.4375 C 31.25 27.296875 31.375 28.15625 31.496094 29.042969 C 33.625 29.46875 33.625 29.46875 35.550781 28.667969 C 35.792969 28.667969 36.035156 28.667969 36.285156 28.667969 C 36.042969 29.285156 35.800781 29.898438 35.550781 30.53125 C 32.601562 31.128906 32.601562 31.128906 31.125 30.226562 C 30.164062 29.164062 30.039062 28.855469 29.933594 27.390625 C 30.019531 26.0625 30.019531 26.0625 30.460938 25.320312 C 31.125 24.945312 31.125 24.945312 32.070312 25.015625 Z M 32.070312 25.015625 "/>
<path style=" stroke:none;fill-rule:nonzero;fill:rgb(79.215688%,61.56863%,17.647059%);fill-opacity:1;" d="M 55.078125 43.191406 C 55.203125 43.4375 55.324219 43.679688 55.449219 43.9375 C 55.8125 43.9375 56.179688 43.9375 56.554688 43.9375 C 56.554688 44.429688 56.554688 44.921875 56.554688 45.425781 C 57.039062 45.546875 57.527344 45.671875 58.027344 45.796875 C 57.789062 46.542969 57.539062 47.289062 57.289062 48.03125 C 57.175781 48.378906 57.066406 48.722656 56.945312 49.078125 C 56.816406 49.347656 56.6875 49.617188 56.554688 49.894531 C 56.1875 50.019531 55.824219 50.136719 55.449219 50.265625 C 54.933594 48.710938 55.511719 47.980469 56.183594 46.542969 C 55.574219 46.421875 54.96875 46.296875 54.34375 46.167969 C 54.089844 45.519531 54.089844 45.519531 53.976562 44.679688 C 54.503906 43.84375 54.503906 43.84375 55.078125 43.191406 Z M 55.078125 43.191406 "/>
<path style=" stroke:none;fill-rule:nonzero;fill:rgb(93.333334%,72.549021%,20.392157%);fill-opacity:1;" d="M 32.972656 37.605469 C 33.09375 37.855469 33.214844 38.097656 33.339844 38.351562 C 33.824219 38.609375 34.316406 38.859375 34.816406 39.097656 C 35.175781 39.339844 35.542969 39.589844 35.921875 39.839844 C 35.921875 40.085938 35.921875 40.332031 35.921875 40.585938 C 33.957031 41.445312 32.441406 41.296875 30.390625 40.957031 C 30.273438 40.464844 30.148438 39.972656 30.019531 39.46875 C 30.375 39.367188 30.722656 39.269531 31.085938 39.164062 C 32.328125 38.816406 32.328125 38.816406 32.972656 37.605469 Z M 32.972656 37.605469 "/>
<path style=" stroke:none;fill-rule:nonzero;fill:rgb(92.941177%,92.941177%,92.941177%);fill-opacity:1;" d="M 64.660156 20.105469 C 65.996094 20.105469 67.335938 20.105469 68.714844 20.105469 C 68.472656 20.722656 68.226562 21.335938 67.980469 21.96875 C 67.894531 22.894531 67.847656 23.828125 67.824219 24.753906 C 67.816406 25.019531 67.808594 25.28125 67.804688 25.550781 C 67.777344 26.382812 67.761719 27.210938 67.746094 28.039062 C 67.730469 28.609375 67.71875 29.171875 67.703125 29.742188 C 67.667969 31.121094 67.640625 32.5 67.609375 33.886719 C 67.484375 33.886719 67.367188 33.886719 67.238281 33.886719 C 67.234375 33.558594 67.226562 33.234375 67.21875 32.902344 C 67.1875 31.707031 67.15625 30.507812 67.125 29.308594 C 67.105469 28.792969 67.09375 28.273438 67.085938 27.753906 C 67.070312 27.011719 67.046875 26.261719 67.023438 25.519531 C 67.011719 25.070312 67 24.621094 66.988281 24.160156 C 66.980469 23.035156 66.980469 23.035156 66.132812 22.339844 C 65.769531 22.523438 65.769531 22.523438 65.398438 22.710938 C 65.15625 21.855469 64.914062 20.992188 64.660156 20.105469 Z M 64.660156 20.105469 "/>
<path style=" stroke:none;fill-rule:nonzero;fill:rgb(79.607844%,64.705884%,27.058825%);fill-opacity:1;" d="M 46.976562 42.445312 C 47.335938 42.445312 47.703125 42.445312 48.078125 42.445312 C 47.808594 44.332031 47.089844 46.023438 46.398438 47.773438 C 46.277344 48.085938 46.15625 48.398438 46.03125 48.71875 C 45.734375 49.484375 45.429688 50.25 45.128906 51.007812 C 44.769531 50.890625 44.402344 50.765625 44.023438 50.636719 C 44.308594 48.949219 44.886719 47.515625 45.558594 45.945312 C 45.949219 44.976562 45.949219 44.976562 45.871094 43.5625 C 46.113281 43.5625 46.355469 43.5625 46.605469 43.5625 C 46.722656 43.195312 46.847656 42.828125 46.976562 42.445312 Z M 46.976562 42.445312 "/>
<path style=" stroke:none;fill-rule:nonzero;fill:rgb(83.137256%,68.627453%,29.019609%);fill-opacity:1;" d="M 77.1875 43.5625 C 76.945312 44.558594 76.699219 45.546875 76.453125 46.542969 C 76.65625 46.421875 76.863281 46.296875 77.074219 46.167969 C 78.039062 45.75 78.726562 45.742188 79.769531 45.796875 C 79.644531 46.167969 79.527344 46.535156 79.398438 46.914062 C 78.898438 47.078125 78.898438 47.078125 78.386719 47.242188 C 76.984375 47.730469 76.324219 48.414062 75.347656 49.523438 C 74.859375 49.273438 74.371094 49.03125 73.875 48.777344 C 74.484375 48.777344 75.085938 48.777344 75.714844 48.777344 C 75.613281 48.371094 75.613281 48.371094 75.507812 47.960938 C 75.335938 46.855469 75.460938 46.128906 75.714844 45.054688 C 75.714844 44.6875 75.714844 44.3125 75.714844 43.9375 C 76.453125 43.5625 76.453125 43.5625 77.1875 43.5625 Z M 77.1875 43.5625 "/>
<path style=" stroke:none;fill-rule:nonzero;fill:rgb(78.039217%,61.56863%,22.352941%);fill-opacity:1;" d="M 63.925781 44.308594 C 64.285156 44.675781 64.652344 45.042969 65.027344 45.425781 C 65.273438 45.179688 65.515625 44.933594 65.765625 44.679688 C 67.070312 44.882812 67.070312 44.882812 67.609375 45.425781 C 67.621094 46.167969 67.625 46.914062 67.609375 47.660156 C 67.242188 47.78125 66.878906 47.90625 66.503906 48.03125 C 66.503906 47.414062 66.503906 46.804688 66.503906 46.167969 C 65.769531 46.664062 65.042969 47.15625 64.292969 47.660156 C 64.292969 47.414062 64.292969 47.167969 64.292969 46.914062 C 63.804688 46.792969 63.316406 46.667969 62.820312 46.542969 C 63.507812 44.726562 63.507812 44.726562 63.925781 44.308594 Z M 63.925781 44.308594 "/>
<path style=" stroke:none;fill-rule:nonzero;fill:rgb(80.392158%,65.490198%,23.137255%);fill-opacity:1;" d="M 62.078125 46.542969 C 63.175781 46.726562 63.175781 46.726562 64.292969 46.914062 C 64.082031 47.984375 63.976562 48.351562 63.183594 49.148438 C 62.195312 49.25 61.238281 49.179688 60.238281 49.148438 C 60.117188 48.902344 59.996094 48.660156 59.871094 48.402344 C 60.214844 47.613281 60.214844 47.613281 60.609375 46.914062 C 60.726562 47.160156 60.851562 47.40625 60.976562 47.660156 C 61.339844 47.535156 61.707031 47.414062 62.078125 47.289062 C 62.078125 47.039062 62.078125 46.796875 62.078125 46.542969 Z M 62.078125 46.542969 "/>
<path style=" stroke:none;fill-rule:nonzero;fill:rgb(85.09804%,69.01961%,27.843139%);fill-opacity:1;" d="M 48.445312 39.839844 C 48.8125 39.964844 49.179688 40.085938 49.554688 40.210938 C 49.1875 40.953125 48.820312 41.6875 48.445312 42.445312 C 48.203125 42.445312 47.960938 42.445312 47.710938 42.445312 C 47.585938 42.691406 47.46875 42.9375 47.339844 43.191406 C 47.222656 43.070312 47.097656 42.945312 46.976562 42.820312 C 46.851562 43.066406 46.730469 43.308594 46.605469 43.5625 C 46.363281 43.5625 46.121094 43.5625 45.871094 43.5625 C 45.871094 43.933594 45.871094 44.300781 45.871094 44.679688 C 45.503906 44.679688 45.136719 44.679688 44.761719 44.679688 C 44.953125 43.152344 45.738281 42.464844 46.8125 41.421875 C 47.117188 41.125 47.421875 40.828125 47.738281 40.519531 C 47.96875 40.296875 48.203125 40.070312 48.445312 39.839844 Z M 48.445312 39.839844 "/>
<path style=" stroke:none;fill-rule:nonzero;fill:rgb(82.745099%,68.235296%,27.843139%);fill-opacity:1;" d="M 42.183594 39.839844 C 42.921875 40.210938 42.921875 40.210938 43.289062 40.957031 C 43.046875 41.105469 42.800781 41.25 42.550781 41.398438 C 41.722656 42.019531 41.722656 42.019531 41.652344 43.027344 C 41.707031 43.328125 41.761719 43.625 41.816406 43.9375 C 42.175781 44.179688 42.542969 44.429688 42.921875 44.679688 C 42.921875 44.925781 42.921875 45.171875 42.921875 45.425781 C 41.84375 45.027344 41.160156 44.761719 40.339844 43.9375 C 40.179688 42.886719 40.179688 42.886719 40.339844 41.703125 C 41.261719 40.632812 41.261719 40.632812 42.183594 39.839844 Z M 42.183594 39.839844 "/>
<path style=" stroke:none;fill-rule:nonzero;fill:rgb(92.941177%,93.333334%,89.803922%);fill-opacity:1;" d="M 50.289062 38.722656 C 51.503906 38.722656 52.722656 38.722656 53.976562 38.722656 C 54.21875 39.21875 54.460938 39.707031 54.710938 40.210938 C 53.128906 40.210938 51.546875 40.210938 49.921875 40.210938 C 50.042969 39.722656 50.164062 39.230469 50.289062 38.722656 Z M 50.289062 38.722656 "/>
<path style=" stroke:none;fill-rule:nonzero;fill:rgb(74.509805%,74.509805%,74.117649%);fill-opacity:1;" d="M 17.863281 18.242188 C 18.980469 19.378906 19.09375 20.320312 19.09375 21.886719 C 19.089844 22.164062 19.082031 22.441406 19.078125 22.730469 C 19.078125 23.015625 19.074219 23.304688 19.074219 23.601562 C 19.0625 24.515625 19.050781 25.429688 19.039062 26.34375 C 19.03125 26.964844 19.027344 27.585938 19.023438 28.207031 C 19.007812 29.726562 18.992188 31.246094 18.96875 32.765625 C 18.847656 32.765625 18.722656 32.765625 18.601562 32.765625 C 18.601562 28.710938 18.601562 24.65625 18.601562 20.476562 C 18.359375 20.476562 18.117188 20.476562 17.863281 20.476562 C 17.449219 19.082031 17.449219 19.082031 17.863281 18.242188 Z M 17.863281 18.242188 "/>
<path style=" stroke:none;fill-rule:nonzero;fill:rgb(87.843138%,67.843139%,17.254902%);fill-opacity:1;" d="M 75.714844 44.679688 C 75.835938 44.679688 75.957031 44.679688 76.082031 44.679688 C 76.082031 47.660156 76.082031 47.660156 75.714844 48.777344 C 74.867188 48.65625 74.015625 48.53125 73.132812 48.402344 C 73.132812 48.035156 73.132812 47.667969 73.132812 47.289062 C 74.363281 46.167969 74.363281 46.167969 75.347656 46.167969 C 75.46875 45.675781 75.589844 45.1875 75.714844 44.679688 Z M 75.714844 44.679688 "/>
<path style=" stroke:none;fill-rule:nonzero;fill:rgb(78.431374%,64.705884%,27.450982%);fill-opacity:1;" d="M 52.871094 37.234375 C 54.082031 37.335938 54.644531 37.550781 55.589844 38.351562 C 56.425781 39.917969 56.15625 41.117188 55.816406 42.820312 C 55.453125 42.695312 55.085938 42.574219 54.710938 42.445312 C 54.726562 42.210938 54.738281 41.980469 54.75 41.742188 C 54.757812 41.433594 54.773438 41.132812 54.78125 40.820312 C 54.800781 40.367188 54.800781 40.367188 54.820312 39.902344 C 54.785156 39.636719 54.746094 39.371094 54.710938 39.097656 C 54.347656 38.847656 53.980469 38.605469 53.605469 38.351562 C 53.605469 38.105469 53.605469 37.859375 53.605469 37.605469 C 53.363281 37.480469 53.121094 37.363281 52.871094 37.234375 Z M 52.871094 37.234375 "/>
<path style=" stroke:none;fill-rule:nonzero;fill:rgb(73.333335%,58.039218%,21.568628%);fill-opacity:1;" d="M 30.019531 39.46875 C 30.386719 39.59375 30.753906 39.710938 31.125 39.839844 C 31.742188 39.867188 32.355469 39.871094 32.972656 39.863281 C 33.292969 39.863281 33.609375 39.859375 33.9375 39.851562 C 34.371094 39.84375 34.371094 39.84375 34.816406 39.839844 C 35.175781 39.839844 35.542969 39.839844 35.921875 39.839844 C 35.921875 40.085938 35.921875 40.332031 35.921875 40.585938 C 33.957031 41.445312 32.441406 41.296875 30.390625 40.957031 C 30.273438 40.464844 30.148438 39.972656 30.019531 39.46875 Z M 30.019531 39.46875 "/>
<path style=" stroke:none;fill-rule:nonzero;fill:rgb(83.92157%,69.803923%,41.960785%);fill-opacity:1;" d="M 73.503906 37.234375 C 73.628906 37.476562 73.746094 37.726562 73.875 37.976562 C 74.117188 38.101562 74.359375 38.226562 74.609375 38.351562 C 74.246094 38.535156 74.246094 38.535156 73.875 38.722656 C 73.457031 39.59375 73.457031 39.59375 73.089844 40.609375 C 72.960938 40.953125 72.828125 41.292969 72.695312 41.644531 C 72.597656 41.910156 72.5 42.171875 72.398438 42.445312 C 72.15625 42.445312 71.914062 42.445312 71.664062 42.445312 C 71.535156 40.632812 71.851562 39.546875 72.769531 37.976562 C 73.011719 37.734375 73.253906 37.488281 73.503906 37.234375 Z M 73.503906 37.234375 "/>
<path style=" stroke:none;fill-rule:nonzero;fill:rgb(94.117647%,93.725491%,93.333334%);fill-opacity:1;" d="M 36.65625 20.105469 C 38.359375 20.105469 40.058594 20.105469 41.816406 20.105469 C 41.691406 20.355469 41.574219 20.597656 41.445312 20.847656 C 40.59375 20.730469 39.746094 20.605469 38.867188 20.476562 C 38.621094 21.585938 38.378906 22.691406 38.128906 23.832031 C 37.390625 22.339844 37.390625 22.339844 36.65625 20.105469 Z M 36.65625 20.105469 "/>
<path style=" stroke:none;fill-rule:nonzero;fill:rgb(89.019608%,71.372551%,23.921569%);fill-opacity:1;" d="M 71.292969 46.167969 C 71.570312 46.800781 71.570312 46.800781 71.664062 47.660156 C 71.042969 48.683594 71.042969 48.683594 70.1875 49.523438 C 69.703125 49.523438 69.214844 49.523438 68.714844 49.523438 C 68.832031 49.03125 68.957031 48.539062 69.082031 48.03125 C 69.308594 48 69.539062 47.972656 69.773438 47.9375 C 70.625 47.726562 70.625 47.726562 71.015625 46.890625 C 71.109375 46.65625 71.199219 46.414062 71.292969 46.167969 Z M 71.292969 46.167969 "/>
<path style=" stroke:none;fill-rule:nonzero;fill:rgb(74.117649%,60.392159%,25.490198%);fill-opacity:1;" d="M 42.183594 49.523438 C 42.269531 49.753906 42.355469 49.988281 42.445312 50.226562 C 43.054688 51.234375 43.511719 51.34375 44.625 51.664062 C 45.074219 51.800781 45.074219 51.800781 45.539062 51.9375 C 45.765625 52 45.996094 52.0625 46.234375 52.128906 C 45.128906 52.871094 45.128906 52.871094 44.023438 52.777344 C 42.921875 52.5 42.921875 52.5 41.816406 51.757812 C 41.933594 51.015625 42.058594 50.28125 42.183594 49.523438 Z M 42.183594 49.523438 "/>
<path style=" stroke:none;fill-rule:nonzero;fill:rgb(68.235296%,59.607846%,35.686275%);fill-opacity:1;" d="M 31.125 24.945312 C 32.878906 25.222656 32.878906 25.222656 33.707031 26.0625 C 33.570312 27.039062 33.570312 27.039062 33.339844 27.925781 C 32.855469 27.925781 32.363281 27.925781 31.867188 27.925781 C 31.867188 27.679688 31.867188 27.433594 31.867188 27.179688 C 32.230469 27.179688 32.59375 27.179688 32.972656 27.179688 C 32.847656 26.691406 32.726562 26.199219 32.601562 25.691406 C 31.871094 25.9375 31.144531 26.179688 30.390625 26.4375 C 30.632812 25.945312 30.875 25.457031 31.125 24.945312 Z M 31.125 24.945312 "/>
<path style=" stroke:none;fill-rule:nonzero;fill:rgb(80.000001%,62.7451%,22.352941%);fill-opacity:1;" d="M 57.289062 46.914062 C 57.097656 47.945312 56.882812 48.898438 56.554688 49.894531 C 56.1875 50.019531 55.824219 50.136719 55.449219 50.265625 C 55.078125 49.148438 55.078125 49.148438 55.378906 48.171875 C 55.898438 47.125 56.136719 46.914062 57.289062 46.914062 Z M 57.289062 46.914062 "/>
<path style=" stroke:none;fill-rule:nonzero;fill:rgb(86.274511%,71.764708%,37.254903%);fill-opacity:1;" d="M 52.871094 37.234375 C 53.113281 37.359375 53.355469 37.476562 53.605469 37.605469 C 53.484375 37.855469 53.363281 38.097656 53.238281 38.351562 C 52.019531 38.351562 50.804688 38.351562 49.554688 38.351562 C 49.554688 37.980469 49.554688 37.613281 49.554688 37.234375 C 50.691406 36.65625 51.644531 37.011719 52.871094 37.234375 Z M 52.871094 37.234375 "/>
<path style=" stroke:none;fill-rule:nonzero;fill:rgb(90.588236%,71.372551%,22.745098%);fill-opacity:1;" d="M 62.078125 46.542969 C 63.175781 46.726562 63.175781 46.726562 64.292969 46.914062 C 64.171875 47.40625 64.046875 47.898438 63.925781 48.402344 C 63.316406 48.402344 62.707031 48.402344 62.078125 48.402344 C 62.078125 47.792969 62.078125 47.175781 62.078125 46.542969 Z M 62.078125 46.542969 "/>
<path style=" stroke:none;fill-rule:nonzero;fill:rgb(92.54902%,92.156863%,86.666667%);fill-opacity:1;" d="M 28.179688 24.574219 C 28.300781 24.574219 28.425781 24.574219 28.550781 24.574219 C 28.546875 24.851562 28.539062 25.128906 28.535156 25.417969 C 28.53125 25.785156 28.527344 26.152344 28.527344 26.527344 C 28.523438 26.890625 28.519531 27.253906 28.515625 27.628906 C 28.546875 28.542969 28.65625 29.289062 28.917969 30.160156 C 28.554688 30.34375 28.554688 30.34375 28.179688 30.53125 C 27.480469 28.679688 27.027344 27.070312 27.8125 25.175781 C 27.933594 24.980469 28.054688 24.78125 28.179688 24.574219 Z M 28.179688 24.574219 "/>
<path style=" stroke:none;fill-rule:nonzero;fill:rgb(71.372551%,56.078434%,24.313726%);fill-opacity:1;" d="M 34.074219 31.648438 C 34.320312 31.769531 34.5625 31.894531 34.816406 32.023438 C 34.449219 32.574219 34.449219 32.574219 34.074219 33.136719 C 33.96875 34.027344 33.894531 34.917969 33.84375 35.816406 C 33.820312 36.289062 33.789062 36.761719 33.765625 37.25 C 33.742188 37.613281 33.726562 37.976562 33.707031 38.351562 C 33.585938 38.351562 33.464844 38.351562 33.339844 38.351562 C 33.25 37.445312 33.164062 36.539062 33.085938 35.628906 C 33.046875 35.242188 33.046875 35.242188 33.003906 34.851562 C 32.847656 32.933594 32.847656 32.933594 33.515625 32.03125 C 33.699219 31.902344 33.886719 31.777344 34.074219 31.648438 Z M 34.074219 31.648438 "/>
<path style=" stroke:none;fill-rule:nonzero;fill:rgb(74.117649%,60.392159%,21.960784%);fill-opacity:1;" d="M 77.1875 43.5625 C 77.070312 44.667969 76.945312 45.773438 76.820312 46.914062 C 76.332031 47.039062 75.847656 47.160156 75.347656 47.289062 C 75.40625 46.941406 75.46875 46.59375 75.527344 46.242188 C 75.742188 45.070312 75.742188 45.070312 75.714844 43.9375 C 76.453125 43.5625 76.453125 43.5625 77.1875 43.5625 Z M 77.1875 43.5625 "/>
<path style=" stroke:none;fill-rule:nonzero;fill:rgb(97.647059%,97.254902%,98.039216%);fill-opacity:1;" d="M 58.394531 37.605469 C 58.902344 38.085938 59.394531 38.585938 59.871094 39.097656 C 59.871094 39.339844 59.871094 39.589844 59.871094 39.839844 C 59.140625 39.839844 58.414062 39.839844 57.660156 39.839844 C 57.902344 39.101562 58.144531 38.367188 58.394531 37.605469 Z M 58.394531 37.605469 "/>
<path style=" stroke:none;fill-rule:nonzero;fill:rgb(73.725492%,61.56863%,25.882354%);fill-opacity:1;" d="M 60.238281 44.308594 C 60.601562 44.429688 60.96875 44.554688 61.34375 44.679688 C 61.222656 45.296875 61.101562 45.90625 60.976562 46.542969 C 60.613281 46.542969 60.246094 46.542969 59.871094 46.542969 C 59.070312 47.078125 59.070312 47.078125 58.394531 47.660156 C 58.949219 46.5 59.574219 45.40625 60.238281 44.308594 Z M 60.238281 44.308594 "/>
<path style=" stroke:none;fill-rule:nonzero;fill:rgb(73.725492%,56.470591%,15.686275%);fill-opacity:1;" d="M 46.976562 42.445312 C 47.335938 42.445312 47.703125 42.445312 48.078125 42.445312 C 47.800781 44.214844 47.800781 44.214844 46.976562 45.054688 C 46.609375 44.808594 46.242188 44.5625 45.871094 44.308594 C 45.871094 44.0625 45.871094 43.820312 45.871094 43.5625 C 46.113281 43.5625 46.355469 43.5625 46.605469 43.5625 C 46.722656 43.195312 46.847656 42.828125 46.976562 42.445312 Z M 46.976562 42.445312 "/>
<path style=" stroke:none;fill-rule:nonzero;fill:rgb(89.019608%,71.764708%,25.490198%);fill-opacity:1;" d="M 75.714844 44.679688 C 75.835938 44.679688 75.957031 44.679688 76.082031 44.679688 C 76.195312 45.539062 76.195312 45.539062 76.082031 46.542969 C 75.164062 47.21875 75.164062 47.21875 74.238281 47.660156 C 74.363281 47.167969 74.484375 46.675781 74.609375 46.167969 C 74.851562 46.167969 75.09375 46.167969 75.347656 46.167969 C 75.46875 45.675781 75.589844 45.1875 75.714844 44.679688 Z M 75.714844 44.679688 "/>
<path style=" stroke:none;fill-rule:nonzero;fill:rgb(89.411765%,91.37255%,87.450981%);fill-opacity:1;" d="M 40.339844 37.234375 C 40.863281 38.21875 41.214844 39.121094 41.445312 40.210938 C 40.835938 40.210938 40.230469 40.210938 39.605469 40.210938 C 39.796875 39.183594 40.011719 38.230469 40.339844 37.234375 Z M 40.339844 37.234375 "/>
<path style=" stroke:none;fill-rule:nonzero;fill:rgb(68.235296%,59.215689%,28.235295%);fill-opacity:1;" d="M 31.707031 19.335938 C 32.121094 19.34375 32.539062 19.355469 32.972656 19.363281 C 32.726562 19.605469 32.484375 19.855469 32.234375 20.105469 C 31.746094 20.105469 31.261719 20.105469 30.761719 20.105469 C 30.636719 20.597656 30.519531 21.089844 30.390625 21.597656 C 30.25 20.976562 30.128906 20.359375 30.019531 19.734375 C 30.390625 19.363281 30.390625 19.363281 31.707031 19.335938 Z M 31.707031 19.335938 "/>
<path style=" stroke:none;fill-rule:nonzero;fill:rgb(70.980394%,61.56863%,33.333334%);fill-opacity:1;" d="M 52.871094 37.234375 C 54.0625 37.363281 54.566406 37.445312 55.378906 38.375 C 55.523438 38.613281 55.667969 38.847656 55.816406 39.097656 C 54.710938 39.097656 54.710938 39.097656 53.605469 38.351562 C 53.605469 38.105469 53.605469 37.859375 53.605469 37.605469 C 53.363281 37.480469 53.121094 37.363281 52.871094 37.234375 Z M 52.871094 37.234375 "/>
<path style=" stroke:none;fill-rule:nonzero;fill:rgb(78.823531%,66.274512%,37.254903%);fill-opacity:1;" d="M 30.019531 20.847656 C 30.269531 21.222656 30.511719 21.589844 30.761719 21.96875 C 30.4375 23.339844 30.4375 23.339844 30.019531 24.574219 C 29.902344 24.574219 29.777344 24.574219 29.65625 24.574219 C 29.648438 24.023438 29.636719 23.472656 29.628906 22.921875 C 29.625 22.613281 29.621094 22.3125 29.617188 21.996094 C 29.65625 21.222656 29.65625 21.222656 30.019531 20.847656 Z M 30.019531 20.847656 "/>
<path style=" stroke:none;fill-rule:nonzero;fill:rgb(70.19608%,61.960787%,31.764707%);fill-opacity:1;" d="M 41.074219 42.445312 C 41.179688 42.675781 41.277344 42.910156 41.378906 43.144531 C 41.800781 44.050781 41.800781 44.050781 42.921875 44.679688 C 42.921875 44.925781 42.921875 45.171875 42.921875 45.425781 C 41.121094 44.773438 41.121094 44.773438 40.710938 43.9375 C 40.871094 43.144531 40.871094 43.144531 41.074219 42.445312 Z M 41.074219 42.445312 "/>
<path style=" stroke:none;fill-rule:nonzero;fill:rgb(79.607844%,65.098041%,31.764707%);fill-opacity:1;" d="M 61.34375 42.445312 C 61.710938 42.445312 62.074219 42.445312 62.449219 42.445312 C 62.324219 43.0625 62.207031 43.675781 62.078125 44.308594 C 61.59375 44.1875 61.109375 44.0625 60.609375 43.9375 C 60.851562 43.445312 61.09375 42.957031 61.34375 42.445312 Z M 61.34375 42.445312 "/>
</g>
</svg>
